# xmcd
#
# Track frame offsets:
#	150
#	9360
#	25705
#	39317
#	54157
#	77595
#	102312
#	119410
#	132390
#	150052
#	154467
#	165532
#
# Disc length: 2435 seconds
#
# Revision: 1
# Processed by: cddbd v1.5PL3 Copyright (c) Steve Scherf et al.
# Submitted via: audiograbber 1.83.01
#
DISCID=7f09810c
DTITLE=Ecco di Lorenzo and his Innersoul - featuring The DiLorettes and the Motor
DTITLE=City Horns
DYEAR=1993
DGENRE=Soul
TTITLE0=I can't turn you loose
TTITLE1=Ain't no Mountain high enough
TTITLE2=My Guy
TTITLE3=Halleluja (I just love her so)
TTITLE4=Georgia
TTITLE5=What's going on
TTITLE6=Try a little Tenderness
TTITLE7=Too hard to handle
TTITLE8=Only so much Oil in the Ground
TTITLE9=The Legend
TTITLE10=Outasite
TTITLE11=Bring it up
EXTD=
EXTT0=
EXTT1=
EXTT2=
EXTT3=
EXTT4=
EXTT5=
EXTT6=
EXTT7=
EXTT8=
EXTT9=
EXTT10=
EXTT11=
PLAYORDER=
